<?xml version="1.0" encoding="utf-8"?>
<!-- Generator: Adobe Illustrator 19.2.1, SVG Export Plug-In . SVG Version: 6.00 Build 0)  -->
<svg version="1.1" id="Layer_1" xmlns="http://www.w3.org/2000/svg" xmlns:xlink="http://www.w3.org/1999/xlink" x="0px" y="0px"
	 viewBox="0 0 216 216" style="enable-background:new 0 0 216 216;" xml:space="preserve">
<style type="text/css">
	.st0{fill:#FFFFFF;}
	.st1{fill:#FEBF10;}
</style>
<rect x="0" class="st0" width="216" height="216"/>
<g>
	<g>
		<g>
			<path d="M63,45.6h3.8l-9.3,10.1L69.1,67h-4.2L54,56.4V67h-3.1V45.6H54v9.8L63,45.6z"/>
			<path d="M79.3,45.6h12.1v2.7h-9.1v6.5h8.8v2.7h-8.8v6.6h9.4v2.7H79.3V45.6z"/>
			<path d="M116.3,45.6h3l-9,21.5h-0.7l-9.2-21.5h3.1l6.4,15L116.3,45.6z"/>
			<path d="M129.6,45.6h3.1V67h-3.1V45.6z"/>
			<path d="M162.2,45.6h2.9V67h-2.6l-14.3-16.5V67h-2.9V45.6h2.5l14.4,16.6V45.6z"/>
		</g>
		<g>
			<path d="M57.3,95.6L55,94.2c-1.4-0.9-2.5-1.7-3.1-2.6c-0.6-0.8-0.9-1.8-0.9-2.9c0-1.7,0.6-3,1.7-4c1.1-1,2.6-1.5,4.5-1.5
				c1.8,0,3.4,0.5,4.8,1.5V88c-1.5-1.5-3.1-2.2-4.9-2.2c-1,0-1.8,0.2-2.4,0.7c-0.6,0.5-0.9,1-0.9,1.7c0,0.6,0.2,1.2,0.7,1.8
				c0.5,0.6,1.2,1.1,2.2,1.7l2.3,1.4c2.6,1.5,3.8,3.5,3.8,5.8c0,1.7-0.6,3-1.7,4.1c-1.1,1.1-2.6,1.6-4.4,1.6c-2.1,0-4-0.6-5.7-1.9
				v-3.8c1.6,2.1,3.5,3.1,5.6,3.1c0.9,0,1.7-0.3,2.3-0.8c0.6-0.5,0.9-1.2,0.9-2C60.1,98,59.2,96.7,57.3,95.6z"/>
			<path d="M90.6,83.4h2.8v21h-3V88.1l-6.5,8.1h-0.6l-6.5-8.1v16.3h-3v-21h2.8l7,8.6L90.6,83.4z"/>
			<path d="M105.7,83.4h3v21h-3V83.4z"/>
			<path d="M119.2,83.4h17.5V86h-7.3v18.3h-3V86h-7.2V83.4z"/>
			<path d="M162.1,83.4h3v21h-3v-9.1h-11.8v9.1h-3v-21h3v9.1h11.8V83.4z"/>
		</g>
	</g>
	<g>
		<path class="st1" d="M101.8,150c-1,0-4.5-0.2-8.7-2.7c0,0-4.8-3.7-10.2-3.7l-0.4,0c-4.2,0-12.2,2.6-12.2,12.5
			c0,9.9,7.9,12.5,12.1,12.5l0.5,0c5.3,0,10.1-3.6,10.1-3.6h0c3.8-2.4,7.3-2.8,9-2.8l1.9,0.1V150H101.8z M73.9,156
			c0-8.6,7.8-8.9,8.7-8.9l0.4,0c3.7,0,7.4,2.5,8.2,3c3.8,2.3,7.2,3.1,9.2,3.3v5.2c-2,0.2-5.4,1-9.4,3.4c-0.4,0.3-4.2,2.9-8,2.9
			l-0.5,0c-0.3,0-8.5-0.1-8.6-8.5L73.9,156L73.9,156z"/>
	</g>
	<g>
		<polygon class="st1" points="81.1,156.3 81.1,150.7 86.6,155.4 86.6,152.6 93,157.9 88.4,156.5 88.4,161.5 		"/>
	</g>
	<g>
		<path d="M144.4,154.3l-20.5-12.5l-9.2,6.7l0-0.8c0-1-0.8-1.8-1.8-1.8c-1,0-1.8,0.8-1.8,1.8v17c0,1,0.8,1.8,1.8,1.8
			c1,0,1.8-0.8,1.8-1.8v-0.8l9.3,6.7l20.5-12.5h1.3v-3.6H144.4z M123.2,153.3v5.5h5.5v-1h8.7l-13.4,8.2l-8.2-5.9h-1.2V152h1.2
			l8.2-5.9l13.4,8.2h-8.7v-1H123.2z"/>
	</g>
	<path d="M107.5,145.7c-1,0-1.8,0.8-1.8,1.8v17c0,1,0.8,1.8,1.8,1.8c1,0,1.8-0.8,1.8-1.8v-17C109.3,146.6,108.5,145.7,107.5,145.7z"
		/>
	<rect x="67" y="122.5" width="2.9" height="2.9"/>
	<rect x="146.1" y="122.5" width="2.9" height="2.9"/>
	<g>
		<path d="M85.5,124.7c0,0.7-0.1,1.2-0.4,1.6c-0.2,0.4-0.5,0.7-0.9,1c-0.5,0.4-1.1,0.6-2,0.6h-0.1h-3.5v-6.6h2.8
			c0.4,0,0.8,0,1.1,0.1c0.3,0,0.6,0.1,0.8,0.2c0.2,0.1,0.4,0.2,0.6,0.3c0.2,0.1,0.3,0.2,0.4,0.3c0.2,0.2,0.4,0.4,0.6,0.7
			c0.2,0.3,0.3,0.5,0.4,0.9C85.4,124,85.5,124.3,85.5,124.7z M83.5,124.6c0-0.5-0.1-1-0.3-1.3c-0.2-0.3-0.5-0.5-0.7-0.6
			c-0.3-0.1-0.6-0.2-0.9-0.2h-0.9v3.9h0.9c0.5,0,1-0.1,1.4-0.4C83.3,125.9,83.5,125.4,83.5,124.6z"/>
		<path d="M95.6,127.9h-5v-6.6h4.9v1.3h-2.9v1.2h2.8v1.3h-2.8v1.4h3V127.9z"/>
		<path d="M105.5,126c0,0.4-0.1,0.8-0.3,1.1c-0.2,0.3-0.5,0.5-0.9,0.7c-0.4,0.2-0.8,0.2-1.3,0.2c-0.1,0-0.3,0-0.5,0
			c-0.2,0-0.5-0.1-0.8-0.1c-0.3-0.1-0.7-0.2-1-0.4v-1.6c0.3,0.2,0.7,0.4,1,0.5c0.3,0.1,0.7,0.2,1,0.2c0.3,0,0.6-0.1,0.7-0.2
			c0.1-0.1,0.2-0.2,0.2-0.3c0-0.2-0.1-0.3-0.3-0.5c-0.2-0.1-0.4-0.3-0.7-0.4c-0.4-0.2-0.7-0.3-1-0.5c-0.3-0.2-0.5-0.4-0.7-0.7
			c-0.2-0.3-0.3-0.6-0.3-1c0-0.4,0.1-0.7,0.3-1c0.2-0.3,0.4-0.5,0.8-0.7c0.4-0.2,0.8-0.3,1.3-0.3c0.4,0,0.7,0,1,0.1
			c0.3,0.1,0.6,0.2,0.8,0.2c0.2,0.1,0.3,0.2,0.4,0.2v1.6c-0.3-0.2-0.6-0.4-0.9-0.5c-0.3-0.2-0.7-0.2-1.1-0.2c-0.2,0-0.4,0-0.5,0.1
			c-0.1,0.1-0.2,0.2-0.2,0.4c0,0.1,0.1,0.2,0.2,0.3c0.1,0.1,0.3,0.2,0.6,0.3c0.5,0.2,0.9,0.5,1.2,0.6c0.3,0.2,0.5,0.4,0.7,0.7
			C105.4,125.3,105.5,125.6,105.5,126z"/>
		<path d="M112.8,127.9h-2v-6.6h2V127.9z"/>
		<path d="M124.6,127.4c-0.1,0.1-0.3,0.1-0.4,0.1c-0.1,0-0.2,0.1-0.3,0.1c-0.1,0-0.2,0.1-0.4,0.1c-0.3,0.1-0.6,0.1-0.9,0.2
			c-0.3,0-0.6,0.1-1,0.1c-0.7,0-1.3-0.1-1.9-0.4c-0.6-0.2-1-0.6-1.4-1.1c-0.3-0.5-0.5-1.2-0.5-1.9c0-0.5,0.1-1,0.3-1.4
			c0.2-0.5,0.4-0.8,0.8-1.1c0.3-0.2,0.6-0.4,0.9-0.5c0.3-0.1,0.6-0.2,0.9-0.2c0.3,0,0.6-0.1,1-0.1c0.6,0,1.1,0,1.4,0.1
			c0.4,0.1,0.8,0.2,1.2,0.3v1.6c-0.3-0.2-0.6-0.3-0.9-0.4c-0.3-0.1-0.8-0.2-1.3-0.2c-0.6,0-1,0.1-1.4,0.3c-0.3,0.2-0.6,0.5-0.7,0.8
			c-0.1,0.3-0.2,0.6-0.2,0.9c0,0.3,0.1,0.6,0.2,0.9c0.2,0.3,0.4,0.5,0.7,0.7c0.3,0.2,0.7,0.3,1.1,0.3c0.3,0,0.5,0,0.8-0.1v-0.8H122
			v-1.3h2.6V127.4z"/>
		<path d="M137.3,127.9h-1.8l-3.4-3.7v3.7h-2v-6.6h1.8l3.4,3.7v-3.7h2V127.9z"/>
	</g>
</g>
</svg>
