<?xml version="1.0" encoding="utf-8"?>
<!-- Generator: Adobe Illustrator 19.2.1, SVG Export Plug-In . SVG Version: 6.00 Build 0)  -->
<svg version="1.1" id="Layer_1" xmlns="http://www.w3.org/2000/svg" xmlns:xlink="http://www.w3.org/1999/xlink" x="0px" y="0px"
	 viewBox="0 0 305.5 305.5" style="enable-background:new 0 0 305.5 305.5;" xml:space="preserve">
<style type="text/css">
	.st0{fill:#FFFFFF;}
	.st1{fill:#FEBF10;}
</style>
<rect x="44.7" y="44.7" transform="matrix(0.7071 0.7071 -0.7071 0.7071 152.7351 -63.2649)" class="st0" width="216" height="216"/>
<g>
	<g>
		<g>
			<path d="M107.7,90.3h3.8l-9.3,10.1l11.6,11.2h-4.2l-10.9-10.6v10.6h-3.1V90.3h3.1v9.8L107.7,90.3z"/>
			<path d="M124,90.3h12.1v2.7h-9.1v6.5h8.8v2.7h-8.8v6.6h9.4v2.7H124V90.3z"/>
			<path d="M161,90.3h3l-9,21.5h-0.7l-9.2-21.5h3.1l6.4,15L161,90.3z"/>
			<path d="M174.3,90.3h3.1v21.4h-3.1V90.3z"/>
			<path d="M206.9,90.3h2.9v21.4h-2.6l-14.3-16.5v16.5H190V90.3h2.5l14.4,16.6V90.3z"/>
		</g>
		<g>
			<path d="M102,140.3l-2.3-1.4c-1.4-0.9-2.5-1.7-3.1-2.6c-0.6-0.8-0.9-1.8-0.9-2.9c0-1.7,0.6-3,1.7-4c1.1-1,2.6-1.5,4.5-1.5
				c1.8,0,3.4,0.5,4.8,1.5v3.4c-1.5-1.5-3.1-2.2-4.9-2.2c-1,0-1.8,0.2-2.4,0.7c-0.6,0.5-0.9,1-0.9,1.7c0,0.6,0.2,1.2,0.7,1.8
				c0.5,0.6,1.2,1.1,2.2,1.7l2.3,1.4c2.6,1.5,3.8,3.5,3.8,5.8c0,1.7-0.6,3-1.7,4.1c-1.1,1.1-2.6,1.6-4.4,1.6c-2.1,0-4-0.6-5.7-1.9
				v-3.8c1.6,2.1,3.5,3.1,5.6,3.1c0.9,0,1.7-0.3,2.3-0.8c0.6-0.5,0.9-1.2,0.9-2C104.8,142.7,103.9,141.5,102,140.3z"/>
			<path d="M135.3,128.1h2.8v21h-3v-16.3l-6.5,8.1h-0.6l-6.5-8.1v16.3h-3v-21h2.8l7,8.6L135.3,128.1z"/>
			<path d="M150.4,128.1h3v21h-3V128.1z"/>
			<path d="M164,128.1h17.5v2.7h-7.3v18.3h-3v-18.3H164V128.1z"/>
			<path d="M206.8,128.1h3v21h-3V140H195v9.1h-3v-21h3v9.1h11.8V128.1z"/>
		</g>
	</g>
	<g>
		<path class="st1" d="M146.5,194.7c-1,0-4.5-0.2-8.7-2.7c0,0-4.8-3.7-10.2-3.7l-0.4,0c-4.2,0-12.2,2.6-12.2,12.5
			c0,9.9,7.9,12.5,12.1,12.5l0.5,0c5.3,0,10.1-3.6,10.1-3.6h0c3.8-2.4,7.3-2.8,9-2.8l1.9,0.1v-12.3H146.5z M118.6,200.7
			c0-8.6,7.8-8.9,8.7-8.9l0.4,0c3.7,0,7.4,2.5,8.2,3c3.8,2.3,7.2,3.1,9.2,3.3v5.2c-2,0.2-5.4,1-9.4,3.4c-0.4,0.3-4.2,2.9-8,2.9
			l-0.5,0c-0.3,0-8.5-0.1-8.6-8.5L118.6,200.7L118.6,200.7z"/>
	</g>
	<g>
		<polygon class="st1" points="125.9,201.1 125.9,195.4 131.3,200.1 131.3,197.4 137.8,202.6 133.1,201.2 133.1,206.2 		"/>
	</g>
	<g>
		<path d="M189.1,199l-20.5-12.5l-9.2,6.7l0-0.8c0-1-0.8-1.8-1.8-1.8c-1,0-1.8,0.8-1.8,1.8v17c0,1,0.8,1.8,1.8,1.8
			c1,0,1.8-0.8,1.8-1.8v-0.8l9.3,6.7l20.5-12.5h1.3V199H189.1z M168,198v5.5h5.5v-1h8.7l-13.4,8.2l-8.2-5.9h-1.2v-8.2h1.2l8.2-5.9
			l13.4,8.2h-8.7v-1H168z"/>
	</g>
	<path d="M152.2,190.5c-1,0-1.8,0.8-1.8,1.8v17c0,1,0.8,1.8,1.8,1.8c1,0,1.8-0.8,1.8-1.8v-17C154,191.3,153.2,190.5,152.2,190.5z"/>
	<rect x="111.7" y="167.2" width="2.9" height="2.9"/>
	<rect x="190.8" y="167.2" width="2.9" height="2.9"/>
	<g>
		<path d="M130.2,169.4c0,0.7-0.1,1.2-0.4,1.6c-0.2,0.4-0.5,0.7-0.9,1c-0.5,0.4-1.1,0.6-2,0.6h-0.1h-3.5V166h2.8
			c0.4,0,0.8,0,1.1,0.1c0.3,0,0.6,0.1,0.8,0.2c0.2,0.1,0.4,0.2,0.6,0.3c0.2,0.1,0.3,0.2,0.4,0.3c0.2,0.2,0.4,0.4,0.6,0.7
			c0.2,0.3,0.3,0.5,0.4,0.9C130.2,168.7,130.2,169,130.2,169.4z M128.2,169.4c0-0.5-0.1-1-0.3-1.3c-0.2-0.3-0.5-0.5-0.7-0.6
			c-0.3-0.1-0.6-0.2-0.9-0.2h-0.9v3.9h0.9c0.5,0,1-0.1,1.4-0.4C128,170.6,128.2,170.1,128.2,169.4z"/>
		<path d="M140.4,172.6h-5V166h4.9v1.3h-2.9v1.2h2.8v1.3h-2.8v1.4h3V172.6z"/>
		<path d="M150.3,170.7c0,0.4-0.1,0.8-0.3,1.1c-0.2,0.3-0.5,0.5-0.9,0.7c-0.4,0.2-0.8,0.2-1.3,0.2c-0.1,0-0.3,0-0.5,0
			c-0.2,0-0.5-0.1-0.8-0.1c-0.3-0.1-0.7-0.2-1-0.4v-1.6c0.3,0.2,0.7,0.4,1,0.5c0.3,0.1,0.7,0.2,1,0.2c0.3,0,0.6-0.1,0.7-0.2
			c0.1-0.1,0.2-0.2,0.2-0.3c0-0.2-0.1-0.3-0.3-0.5c-0.2-0.1-0.4-0.3-0.7-0.4c-0.4-0.2-0.7-0.3-1-0.5c-0.3-0.2-0.5-0.4-0.7-0.7
			c-0.2-0.3-0.3-0.6-0.3-1c0-0.4,0.1-0.7,0.3-1c0.2-0.3,0.4-0.5,0.8-0.7c0.4-0.2,0.8-0.3,1.3-0.3c0.4,0,0.7,0,1,0.1
			c0.3,0.1,0.6,0.2,0.8,0.2c0.2,0.1,0.3,0.2,0.4,0.2v1.6c-0.3-0.2-0.6-0.4-0.9-0.5c-0.3-0.2-0.7-0.2-1.1-0.2c-0.2,0-0.4,0-0.5,0.1
			c-0.1,0.1-0.2,0.2-0.2,0.4c0,0.1,0.1,0.2,0.2,0.3c0.1,0.1,0.3,0.2,0.6,0.3c0.5,0.2,0.9,0.5,1.2,0.6c0.3,0.2,0.5,0.4,0.7,0.7
			C150.2,170,150.3,170.3,150.3,170.7z"/>
		<path d="M157.5,172.6h-2V166h2V172.6z"/>
		<path d="M169.4,172.2c-0.1,0.1-0.3,0.1-0.4,0.1c-0.1,0-0.2,0.1-0.3,0.1c-0.1,0-0.2,0.1-0.4,0.1c-0.3,0.1-0.6,0.1-0.9,0.2
			c-0.3,0-0.6,0.1-1,0.1c-0.7,0-1.3-0.1-1.9-0.4c-0.6-0.2-1-0.6-1.4-1.1c-0.3-0.5-0.5-1.2-0.5-1.9c0-0.5,0.1-1,0.3-1.4
			c0.2-0.5,0.4-0.8,0.8-1.1c0.3-0.2,0.6-0.4,0.9-0.5c0.3-0.1,0.6-0.2,0.9-0.2c0.3,0,0.6-0.1,1-0.1c0.6,0,1.1,0,1.4,0.1
			c0.4,0.1,0.8,0.2,1.2,0.3v1.6c-0.3-0.2-0.6-0.3-0.9-0.4c-0.3-0.1-0.8-0.2-1.3-0.2c-0.6,0-1,0.1-1.4,0.3c-0.3,0.2-0.6,0.5-0.7,0.8
			c-0.1,0.3-0.2,0.6-0.2,0.9c0,0.3,0.1,0.6,0.2,0.9c0.2,0.3,0.4,0.5,0.7,0.7c0.3,0.2,0.7,0.3,1.1,0.3c0.3,0,0.5,0,0.8-0.1v-0.8h-0.9
			V169h2.6V172.2z"/>
		<path d="M182.1,172.6h-1.8l-3.4-3.7v3.7h-2V166h1.8l3.4,3.7V166h2V172.6z"/>
	</g>
</g>
</svg>
