<?xml version="1.0" encoding="utf-8"?>
<!-- Generator: Adobe Illustrator 19.2.1, SVG Export Plug-In . SVG Version: 6.00 Build 0)  -->
<svg version="1.1" id="Layer_1" xmlns="http://www.w3.org/2000/svg" xmlns:xlink="http://www.w3.org/1999/xlink" x="0px" y="0px"
	 viewBox="0 0 144 144" style="enable-background:new 0 0 144 144;" xml:space="preserve">
<style type="text/css">
	.st0{fill:#0871B9;}
	.st1{fill:#29A8DE;}
	.st2{fill:#EBEBEB;}
	.st3{clip-path:url(#SVGID_2_);fill:#FFFFFF;}
</style>
<g>
	<polygon class="st0" points="21.4,14.8 122.6,14.8 113.1,117.7 72,129.2 30.5,117.5 	"/>
	<polygon class="st1" points="72,23.4 113.6,23.4 105.4,111.1 72,120.2 	"/>
	<polygon class="st2" points="40,34.8 41.4,47.6 89.6,47.6 88.4,60.5 56.7,60.5 57.7,73 87.2,73 85.9,89.1 72,93.2 57.7,89.5 
		56.8,79.5 43.9,79.5 45.8,99 72,106.6 97.9,99.5 103.3,34.8 	"/>
	<g>
		<defs>
			<polygon id="SVGID_1_" points="40,34.8 41.4,47.6 89.6,47.6 88.4,60.5 56.7,60.5 57.7,73 87.2,73 85.9,89.1 72,93.2 57.7,89.5 
				56.8,79.5 43.9,79.5 45.8,99 72,106.6 97.9,99.5 103.3,34.8 			"/>
		</defs>
		<clipPath id="SVGID_2_">
			<use xlink:href="#SVGID_1_"  style="overflow:visible;"/>
		</clipPath>
		<polygon class="st3" points="72,23.4 113.6,23.4 105.4,111.1 72,120.2 		"/>
	</g>
</g>
</svg>
