<?xml version="1.0" encoding="utf-8"?>
<!-- Generator: Adobe Illustrator 19.2.1, SVG Export Plug-In . SVG Version: 6.00 Build 0)  -->
<svg version="1.1" id="Layer_1" xmlns="http://www.w3.org/2000/svg" xmlns:xlink="http://www.w3.org/1999/xlink" x="0px" y="0px"
	 viewBox="0 0 144 144" style="enable-background:new 0 0 144 144;" xml:space="preserve">
<style type="text/css">
	.st0{fill:#E55025;}
	.st1{fill:#F26722;}
	.st2{fill:#EBEBEB;}
	.st3{clip-path:url(#SVGID_2_);fill:#FFFFFF;}
</style>
<g>
	<polygon class="st0" points="21.4,14.8 122.6,14.8 113.1,117.7 72,129.2 30.5,117.5 	"/>
	<polygon class="st1" points="72,23.4 113.6,23.4 105.4,111.1 72,120.2 	"/>
	<polygon class="st2" points="103.6,35.6 102.5,48.5 54.1,48.5 55.2,61.1 101.6,61.1 98,100.1 72,107.3 45.9,100.1 44.3,80.4 
		57,80.4 57.9,90.6 72,94.2 86,90.3 87.3,74 43.2,74 40.3,35.6 	"/>
	<g>
		<defs>
			<polygon id="SVGID_1_" points="103.6,35.6 102.5,48.5 54.1,48.5 55.2,61.1 101.6,61.1 98,100.1 72,107.3 45.9,100.1 44.3,80.4 
				57,80.4 57.9,90.6 72,94.2 86,90.3 87.3,74 43.2,74 40.3,35.6 			"/>
		</defs>
		<clipPath id="SVGID_2_">
			<use xlink:href="#SVGID_1_"  style="overflow:visible;"/>
		</clipPath>
		<polygon class="st3" points="72,23.4 113.6,23.4 105.4,111.1 72,120.2 		"/>
	</g>
</g>
</svg>
