<?xml version="1.0" encoding="utf-8"?>
<!-- Generator: Adobe Illustrator 19.2.1, SVG Export Plug-In . SVG Version: 6.00 Build 0)  -->
<svg version="1.1" id="Layer_1" xmlns="http://www.w3.org/2000/svg" xmlns:xlink="http://www.w3.org/1999/xlink" x="0px" y="0px"
	 viewBox="0 0 157.5 172.1" style="enable-background:new 0 0 157.5 172.1;" xml:space="preserve">
<style type="text/css">
	.st0{fill:#EDB61E;}
</style>
<title>ksmithlogo</title>
<path d="M16.6,0h5.3L9.1,14l15.9,15.5h-5.8L4.2,14.9v14.6H0V0h4.2v13.5L16.6,0z"/>
<path d="M39.1,0h16.7v3.8H43.3v9h12.1v3.8H43.3v9.2h12.9v3.8H39.1V0z"/>
<path d="M90.2,0h4.2L82,29.6h-1L68.3,0h4.3l8.9,20.7L90.2,0z"/>
<path d="M108.5,0h4.2v29.5h-4.2L108.5,0L108.5,0z"/>
<path d="M153.5,0h4v29.5h-3.6L134.2,6.8v22.7h-4V0h3.4l19.9,22.9L153.5,0L153.5,0z"/>
<path d="M8.9,69l-3.1-1.9c-1.6-0.9-3.1-2.1-4.2-3.6c-0.8-1.2-1.3-2.6-1.2-4c-0.1-2.1,0.8-4.2,2.4-5.6c1.7-1.5,3.9-2.3,6.1-2.2
	c2.4,0,4.7,0.7,6.7,2v4.7c-1.8-1.9-4.2-2.9-6.8-3c-1.2,0-2.3,0.3-3.3,0.9C4.5,56.9,4,57.8,4,58.8c0,0.9,0.4,1.8,1,2.4
	c0.9,1,1.9,1.8,3.1,2.4l3.2,1.9c3.5,2.1,5.3,4.8,5.3,8c0.1,2.1-0.8,4.2-2.3,5.7c-1.7,1.5-3.8,2.3-6.1,2.2c-2.8,0-5.6-0.9-7.8-2.6
	v-5.2c2.2,2.8,4.8,4.2,7.8,4.2c1.2,0,2.3-0.3,3.2-1.1c0.8-0.7,1.3-1.7,1.3-2.7C12.7,72.2,11.4,70.5,8.9,69z"/>
<path d="M54.8,52.1h3.9v28.9h-4.2V58.6l-8.9,11.2h-0.8l-9-11.2v22.5h-4.1v-29h3.9l9.6,12L54.8,52.1z"/>
<path d="M75.5,52.1h4.1v28.9h-4.1V52.1L75.5,52.1z"/>
<path d="M94.2,52.1h24.2v3.7h-10.1v25.3h-4.2V55.8h-9.9L94.2,52.1L94.2,52.1z"/>
<path d="M153.4,52.1h4.1v28.9h-4.1V68.5h-16.3v12.6H133v-29h4.1v12.6h16.3L153.4,52.1L153.4,52.1z"/>
<path class="st0" d="M72.2,146.4v13.6l-1.6-0.1c-4.6,0.1-9.1,1.5-13,4c-0.1,0.1-6.4,4.8-13.4,4.8h-0.7l0,0
	c-5.4,0-15.8-3.4-15.8-16.3s10.4-16.3,15.9-16.3h0.6c6.9,0,13.2,4.7,13.5,4.9c3.7,2.4,8.1,3.8,12.5,4h2L72.2,146.4L72.2,146.4z
	 M30.8,152.8c0.1,12.7,12.3,12.8,12.8,12.8h0.6c5.9,0,11.6-4.2,11.6-4.2c4-2.6,8.6-4.1,13.3-4.5v-8.9c-4.7-0.4-9.2-1.9-13.2-4.5
	c-0.1-0.1-5.8-4.4-11.7-4.4h-0.5c-0.6,0-12.8,0.1-12.9,13.2v0.1L30.8,152.8z"/>
<path class="st0" d="M44.2,169.6h-0.7c-5.8,0-16.7-3.6-16.7-17.2s11-17.3,16.8-17.3h0.6c7.5,0,14,5,14.1,5.1
	c3.6,2.3,7.7,3.6,11.9,3.8h2.9v17l-2.6-0.2c-4.4,0.2-8.7,1.5-12.4,3.9l0,0C58,164.6,51.5,169.6,44.2,169.6z M44.2,140h-0.5
	c-1.2,0-11.9,0.3-12,12.2v0.1l0,0.5c0.1,11.6,11.4,11.8,11.9,11.8h0.6c5.2,0,10.5-3.6,11-4.1c3.9-2.5,8.3-4.1,12.9-4.7v-7.2
	c-4.5-0.6-8.9-2.1-12.7-4.5C54.4,143.5,49.3,140.1,44.2,140L44.2,140z"/>
<polygon class="st0" points="41.7,152.7 41.7,144.9 49.2,151.4 49.2,147.6 58,154.9 51.7,152.9 51.7,159.8 "/>
<path d="M128.7,150.8l-28-17.1l-12.5,9h-1.3v-2.1c0-0.9-0.7-1.6-1.6-1.6c-0.9,0-1.6,0.7-1.6,1.6l0,0v23.4c0,0.9,0.7,1.6,1.6,1.6
	c0.9,0,1.6-0.7,1.6-1.6V162h1.3l12.5,9l28-17.1h1.2v-3.1H128.7z M100.7,149.5v5.7h5.7v-1.3h16.4l-21.9,13.4l-11.6-8.4h-2.3v-13.1
	h2.3l11.6-8.4l21.9,13.4h-16.3v-1.3H100.7L100.7,149.5z"/>
<path d="M100.7,172.1l-12.8-9.2v1.1c0,1.4-1.1,2.5-2.5,2.5s-2.5-1.1-2.5-2.5v-23.4c0-1.4,1.1-2.5,2.5-2.5s2.5,1.1,2.5,2.5l0.1,1.1
	l12.7-9.2l28.3,17.3h1.8v5h-1.8L100.7,172.1z M87.9,158h1.7l11.3,8.2l18.5-11.3h-12v1.3h-7.7v-7.6h7.6v1.3h12.1l-18.5-11.3
	l-11.4,8.2h-1.7L87.9,158L87.9,158z"/>
<path d="M78,139.1c-0.9,0-1.6,0.7-1.6,1.6v23.4c0,0.9,0.7,1.6,1.6,1.6c0.9,0,1.6-0.7,1.6-1.6v-23.4C79.6,139.8,78.9,139.1,78,139.1z
	"/>
<path d="M78,166.6c-1.4,0-2.5-1.1-2.5-2.5v-23.5c0-1.4,1.1-2.5,2.5-2.5s2.5,1.1,2.5,2.5v23.4C80.5,165.4,79.4,166.6,78,166.6
	C78,166.6,78,166.6,78,166.6z"/>
<rect x="22.2" y="106.1" width="4.1" height="4.1"/>
<rect x="131.3" y="106.1" width="4.1" height="4.1"/>
<path d="M47.7,109.1c0,0.8-0.1,1.6-0.5,2.2c-0.3,0.5-0.7,1-1.2,1.4c-0.8,0.6-1.8,0.8-2.8,0.8h-4.9v-9.1h3.8c0.5,0,1,0,1.5,0.1
	c0.4,0.1,0.7,0.1,1.1,0.2c0.3,0.1,0.6,0.2,0.8,0.4c0.6,0.3,1.1,0.8,1.4,1.3c0.2,0.4,0.4,0.8,0.6,1.2
	C47.6,108.1,47.7,108.6,47.7,109.1z M44.9,108.9c0-0.6-0.1-1.2-0.4-1.7c-0.2-0.4-0.6-0.7-1-0.8c-0.4-0.1-0.8-0.2-1.2-0.2h-1.2v5.4
	h1.2c0.7,0,1.3-0.2,1.9-0.5C44.7,110.5,45,109.8,44.9,108.9L44.9,108.9z"/>
<path d="M61.7,113.5h-6.9v-9.1h6.8v1.8h-4v1.7h3.8v1.8h-3.9v2h4.1L61.7,113.5L61.7,113.5z"/>
<path d="M75.3,110.8c0,0.5-0.1,1-0.4,1.5c-0.3,0.4-0.7,0.8-1.2,1c-0.6,0.2-1.2,0.3-1.8,0.3c-0.2,0-0.4,0-0.7,0
	c-0.4,0-0.7-0.1-1.1-0.2c-0.5-0.1-1-0.3-1.4-0.5v-2.2c0.4,0.3,0.9,0.5,1.4,0.7c0.5,0.2,0.9,0.3,1.4,0.3c0.3,0,0.7,0,0.9-0.2
	c0.1-0.1,0.2-0.3,0.2-0.4c0-0.3-0.1-0.5-0.4-0.6c-0.3-0.2-0.6-0.4-1-0.5c-0.5-0.2-0.9-0.4-1.3-0.7c-0.4-0.2-0.7-0.6-0.9-0.9
	c-0.2-0.4-0.4-0.9-0.4-1.3c0-1,0.6-1.9,1.5-2.3c0.6-0.2,1.2-0.4,1.8-0.3c0.5,0,0.9,0,1.4,0.2c0.4,0.1,0.7,0.2,1.1,0.3
	c0.2,0.1,0.4,0.2,0.6,0.3v2.1c-0.4-0.3-0.8-0.5-1.2-0.7c-0.5-0.2-1-0.3-1.5-0.3c-0.3,0-0.5,0-0.8,0.2c-0.1,0.1-0.2,0.3-0.2,0.5
	c0,0.2,0.1,0.4,0.2,0.5c0.3,0.2,0.5,0.4,0.8,0.5c0.6,0.3,1.1,0.6,1.7,0.9c0.4,0.2,0.7,0.5,1,0.9C75.2,110,75.4,110.4,75.3,110.8z"/>
<path d="M85.4,113.5h-2.8v-9.1h2.8V113.5z"/>
<path d="M101.8,112.8l-0.5,0.2l-0.4,0.1l-0.6,0.2c-0.4,0.1-0.8,0.2-1.2,0.2c-0.4,0.1-0.9,0.1-1.3,0.1c-0.9,0-1.8-0.2-2.6-0.5
	c-0.8-0.3-1.4-0.9-1.9-1.6c-0.5-0.8-0.7-1.7-0.7-2.6c0-0.7,0.1-1.4,0.4-2c0.2-0.6,0.6-1.1,1.1-1.6c0.4-0.3,0.8-0.5,1.3-0.7
	c0.4-0.2,0.8-0.3,1.2-0.3c0.4-0.1,0.9-0.1,1.3-0.1c0.7,0,1.3,0,2,0.2c0.5,0.1,1.1,0.3,1.7,0.5v2.2c-0.4-0.2-0.9-0.4-1.3-0.6
	c-0.6-0.2-1.1-0.3-1.7-0.2c-0.7,0-1.3,0.1-1.9,0.4c-0.4,0.3-0.8,0.6-1,1.1c-0.2,0.4-0.3,0.8-0.3,1.2c0,0.4,0.1,0.9,0.3,1.3
	c0.2,0.4,0.6,0.7,1,0.9c0.5,0.2,1,0.4,1.6,0.3c0.4,0,0.8-0.1,1.1-0.1v-1.1h-1.2v-1.8h3.6V112.8z"/>
<path d="M119.2,113.5h-2.4l-4.7-5.1v5.1h-2.7v-9.1h2.5l4.7,5.1v-5.1h2.8L119.2,113.5L119.2,113.5z"/>
</svg>
