<?xml version="1.0" encoding="utf-8"?>
<!-- Generator: Adobe Illustrator 19.2.1, SVG Export Plug-In . SVG Version: 6.00 Build 0)  -->
<svg version="1.1" id="Layer_1" xmlns="http://www.w3.org/2000/svg" xmlns:xlink="http://www.w3.org/1999/xlink" x="0px" y="0px"
	 viewBox="0 0 216 216" style="enable-background:new 0 0 216 216;" xml:space="preserve">
<style type="text/css">
	.st0{fill:#FFFFFF;}
	.st1{fill:#FEBF10;}
</style>
<g>
	<g>
		<g>
			<path class="st0" d="M63.4,46h3.8l-9.3,10.1l11.6,11.2h-4.2L54.4,56.9v10.6h-3.1V46h3.1v9.8L63.4,46z"/>
			<path class="st0" d="M79.7,46h12.1v2.7h-9.1v6.5h8.8V58h-8.8v6.6h9.4v2.7H79.7V46z"/>
			<path class="st0" d="M116.7,46h3l-9,21.5h-0.7L100.8,46h3.1l6.4,15L116.7,46z"/>
			<path class="st0" d="M130,46h3.1v21.4H130V46z"/>
			<path class="st0" d="M162.6,46h2.9v21.4h-2.6L148.6,51v16.5h-2.9V46h2.5l14.4,16.6V46z"/>
		</g>
		<g>
			<path class="st0" d="M57.7,96.1l-2.3-1.4c-1.4-0.9-2.5-1.7-3.1-2.6c-0.6-0.8-0.9-1.8-0.9-2.9c0-1.7,0.6-3,1.7-4
				c1.1-1,2.6-1.5,4.5-1.5c1.8,0,3.4,0.5,4.8,1.5v3.4c-1.5-1.5-3.1-2.2-4.9-2.2c-1,0-1.8,0.2-2.4,0.7c-0.6,0.5-0.9,1-0.9,1.7
				c0,0.6,0.2,1.2,0.7,1.8c0.5,0.6,1.2,1.1,2.2,1.7l2.3,1.4c2.6,1.5,3.8,3.5,3.8,5.8c0,1.7-0.6,3-1.7,4.1c-1.1,1.1-2.6,1.6-4.4,1.6
				c-2.1,0-4-0.6-5.7-1.9v-3.8c1.6,2.1,3.5,3.1,5.6,3.1c0.9,0,1.7-0.3,2.3-0.8c0.6-0.5,0.9-1.2,0.9-2C60.5,98.4,59.6,97.2,57.7,96.1
				z"/>
			<path class="st0" d="M91,83.9h2.8v21h-3V88.5l-6.5,8.1h-0.6l-6.5-8.1v16.3h-3v-21h2.8l7,8.6L91,83.9z"/>
			<path class="st0" d="M106.1,83.9h3v21h-3V83.9z"/>
			<path class="st0" d="M119.7,83.8h17.5v2.7h-7.3v18.3h-3V86.5h-7.2V83.8z"/>
			<path class="st0" d="M162.5,83.9h3v21h-3v-9.1h-11.8v9.1h-3v-21h3v9.1h11.8V83.9z"/>
		</g>
	</g>
	<g>
		<path class="st1" d="M102.2,150.4c-1,0-4.5-0.2-8.7-2.7c0,0-4.8-3.7-10.2-3.7l-0.4,0c-4.2,0-12.2,2.6-12.2,12.5
			c0,9.9,7.9,12.5,12.1,12.5l0.5,0c5.3,0,10.1-3.6,10.1-3.6h0c3.8-2.4,7.3-2.8,9-2.8l1.9,0.1v-12.3H102.2z M74.3,156.5
			c0-8.6,7.8-8.9,8.7-8.9l0.4,0c3.7,0,7.4,2.5,8.2,3c3.8,2.3,7.2,3.1,9.2,3.3v5.2c-2,0.2-5.4,1-9.4,3.4c-0.4,0.3-4.2,2.9-8,2.9
			l-0.5,0c-0.3,0-8.5-0.1-8.6-8.5L74.3,156.5L74.3,156.5z"/>
	</g>
	<g>
		<polygon class="st1" points="81.6,156.8 81.6,151.1 87,155.9 87,153.1 93.5,158.4 88.8,156.9 88.8,161.9 		"/>
	</g>
	<g>
		<path class="st0" d="M144.8,154.7l-20.5-12.5l-9.2,6.7l0-0.8c0-1-0.8-1.8-1.8-1.8c-1,0-1.8,0.8-1.8,1.8v17c0,1,0.8,1.8,1.8,1.8
			c1,0,1.8-0.8,1.8-1.8v-0.8l9.3,6.7l20.5-12.5h1.3v-3.6H144.8z M123.7,153.8v5.5h5.5v-1h8.7l-13.4,8.2l-8.2-5.9H115v-8.2h1.2
			l8.2-5.9l13.4,8.2h-8.7v-1H123.7z"/>
	</g>
	<path class="st0" d="M107.9,146.2c-1,0-1.8,0.8-1.8,1.8v17c0,1,0.8,1.8,1.8,1.8c1,0,1.8-0.8,1.8-1.8v-17
		C109.7,147,108.9,146.2,107.9,146.2z"/>
	<rect x="67.4" y="123" class="st0" width="2.9" height="2.9"/>
	<rect x="146.5" y="123" class="st0" width="2.9" height="2.9"/>
	<g>
		<path class="st0" d="M85.9,125.2c0,0.7-0.1,1.2-0.4,1.6c-0.2,0.4-0.5,0.7-0.9,1c-0.5,0.4-1.1,0.6-2,0.6h-0.1h-3.5v-6.6h2.8
			c0.4,0,0.8,0,1.1,0.1c0.3,0,0.6,0.1,0.8,0.2c0.2,0.1,0.4,0.2,0.6,0.3c0.2,0.1,0.3,0.2,0.4,0.3c0.2,0.2,0.4,0.4,0.6,0.7
			c0.2,0.3,0.3,0.5,0.4,0.9C85.9,124.4,85.9,124.8,85.9,125.2z M83.9,125.1c0-0.5-0.1-1-0.3-1.3c-0.2-0.3-0.5-0.5-0.7-0.6
			c-0.3-0.1-0.6-0.2-0.9-0.2h-0.9v3.9H82c0.5,0,1-0.1,1.4-0.4C83.7,126.4,83.9,125.8,83.9,125.1z"/>
		<path class="st0" d="M96.1,128.3h-5v-6.6H96v1.3h-2.9v1.2h2.8v1.3h-2.8v1.4h3V128.3z"/>
		<path class="st0" d="M106,126.4c0,0.4-0.1,0.8-0.3,1.1c-0.2,0.3-0.5,0.5-0.9,0.7c-0.4,0.2-0.8,0.2-1.3,0.2c-0.1,0-0.3,0-0.5,0
			c-0.2,0-0.5-0.1-0.8-0.1c-0.3-0.1-0.7-0.2-1-0.4v-1.6c0.3,0.2,0.7,0.4,1,0.5c0.3,0.1,0.7,0.2,1,0.2c0.3,0,0.6-0.1,0.7-0.2
			c0.1-0.1,0.2-0.2,0.2-0.3c0-0.2-0.1-0.3-0.3-0.5c-0.2-0.1-0.4-0.3-0.7-0.4c-0.4-0.2-0.7-0.3-1-0.5c-0.3-0.2-0.5-0.4-0.7-0.7
			c-0.2-0.3-0.3-0.6-0.3-1c0-0.4,0.1-0.7,0.3-1c0.2-0.3,0.4-0.5,0.8-0.7c0.4-0.2,0.8-0.3,1.3-0.3c0.4,0,0.7,0,1,0.1
			c0.3,0.1,0.6,0.2,0.8,0.2c0.2,0.1,0.3,0.2,0.4,0.2v1.6c-0.3-0.2-0.6-0.4-0.9-0.5c-0.3-0.2-0.7-0.2-1.1-0.2c-0.2,0-0.4,0-0.5,0.1
			c-0.1,0.1-0.2,0.2-0.2,0.4c0,0.1,0.1,0.2,0.2,0.3c0.1,0.1,0.3,0.2,0.6,0.3c0.5,0.2,0.9,0.5,1.2,0.6c0.3,0.2,0.5,0.4,0.7,0.7
			C105.9,125.7,106,126,106,126.4z"/>
		<path class="st0" d="M113.2,128.3h-2v-6.6h2V128.3z"/>
		<path class="st0" d="M125.1,127.9c-0.1,0.1-0.3,0.1-0.4,0.1c-0.1,0-0.2,0.1-0.3,0.1c-0.1,0-0.2,0.1-0.4,0.1
			c-0.3,0.1-0.6,0.1-0.9,0.2c-0.3,0-0.6,0.1-1,0.1c-0.7,0-1.3-0.1-1.9-0.4c-0.6-0.2-1-0.6-1.4-1.1c-0.3-0.5-0.5-1.2-0.5-1.9
			c0-0.5,0.1-1,0.3-1.4c0.2-0.5,0.4-0.8,0.8-1.1c0.3-0.2,0.6-0.4,0.9-0.5c0.3-0.1,0.6-0.2,0.9-0.2c0.3,0,0.6-0.1,1-0.1
			c0.6,0,1.1,0,1.4,0.1c0.4,0.1,0.8,0.2,1.2,0.3v1.6c-0.3-0.2-0.6-0.3-0.9-0.4c-0.3-0.1-0.8-0.2-1.3-0.2c-0.6,0-1,0.1-1.4,0.3
			c-0.3,0.2-0.6,0.5-0.7,0.8c-0.1,0.3-0.2,0.6-0.2,0.9c0,0.3,0.1,0.6,0.2,0.9c0.2,0.3,0.4,0.5,0.7,0.7c0.3,0.2,0.7,0.3,1.1,0.3
			c0.3,0,0.5,0,0.8-0.1V126h-0.9v-1.3h2.6V127.9z"/>
		<path class="st0" d="M137.8,128.3H136l-3.4-3.7v3.7h-2v-6.6h1.8l3.4,3.7v-3.7h2V128.3z"/>
	</g>
</g>
</svg>
